<?xml version="1.0" encoding="iso-8859-1"?>
<!-- Generator: Adobe Illustrator 19.0.0, SVG Export Plug-In . SVG Version: 6.00 Build 0)  -->
<svg version="1.1" id="Capa_1" xmlns="http://www.w3.org/2000/svg" xmlns:xlink="http://www.w3.org/1999/xlink" x="0px" y="0px"
	 viewBox="0 0 512 512" style="enable-background:new 0 0 512 512;" xml:space="preserve">
<g>
	<g>
		<path d="M161.053,267.146c-4.142,0-7.5,3.358-7.5,7.5v17.184c0,4.142,3.358,7.5,7.5,7.5c4.142,0,7.5-3.358,7.5-7.5v-17.184
			C168.553,270.504,165.195,267.146,161.053,267.146z"/>
	</g>
</g>
<g>
	<g>
		<path d="M350.946,267.146c-4.142,0-7.5,3.358-7.5,7.5v17.184c0,4.142,3.358,7.5,7.5,7.5c4.142,0,7.5-3.358,7.5-7.5v-17.184
			C358.446,270.504,355.088,267.146,350.946,267.146z"/>
	</g>
</g>
<g>
	<g>
		<path d="M284.369,284.987c-3.119-2.726-7.857-2.408-10.583,0.711c-4.335,4.96-10.818,7.804-17.787,7.804
			c-6.969,0-13.452-2.844-17.787-7.804c-2.726-3.119-7.464-3.437-10.583-0.711c-3.119,2.726-3.437,7.464-0.711,10.583
			c7.184,8.218,17.784,12.932,29.081,12.932c11.297,0,21.897-4.714,29.081-12.932C287.806,292.451,287.488,287.713,284.369,284.987z
			"/>
	</g>
</g>
<g>
	<g>
		<path d="M498.276,433.771l-42.737-226.983c-5.129-27.361-29.056-47.22-56.893-47.22h-19.873v-36.795
			C378.773,55.076,323.697,0,255.999,0c-28.06,0-55.519,9.758-77.318,27.477c-3.214,2.612-3.702,7.336-1.089,10.55
			c2.613,3.214,7.335,3.703,10.55,1.089C207.276,23.565,231.375,15,255.999,15c59.426,0,107.773,48.347,107.773,107.774v36.795
			h-25.654v-36.795c0-45.281-36.838-82.119-82.119-82.119s-82.119,36.838-82.119,82.119v36.795h-25.654v-36.795
			c0-22.892,7.122-44.774,20.596-63.282c2.438-3.349,1.699-8.04-1.649-10.478c-3.35-2.438-8.04-1.7-10.478,1.649
			c-15.354,21.089-23.469,46.025-23.469,72.11v36.795h-19.872c-27.838,0-51.765,19.859-56.892,47.214L13.723,433.778
			c-3.632,19.375,1.506,39.187,14.095,54.355C40.407,503.301,58.933,512,78.645,512h354.709c19.712,0,38.237-8.699,50.827-23.868
			C496.771,472.964,501.908,453.152,498.276,433.771z M188.88,122.774c0-37.01,30.109-67.119,67.119-67.119
			s67.119,30.109,67.119,67.119v36.795H188.88V122.774z M472.639,478.554C462.908,490.277,448.589,497,433.354,497H78.645
			c-15.236,0-29.554-6.723-39.284-18.447s-13.701-27.036-10.896-42.005l42.739-226.995c3.799-20.271,21.526-34.983,42.15-34.983
			h285.292c20.624,0,38.35,14.713,42.151,34.989l42.737,226.983C486.341,451.517,482.37,466.83,472.639,478.554z"/>
	</g>
</g>
<g>
</g>
<g>
</g>
<g>
</g>
<g>
</g>
<g>
</g>
<g>
</g>
<g>
</g>
<g>
</g>
<g>
</g>
<g>
</g>
<g>
</g>
<g>
</g>
<g>
</g>
<g>
</g>
<g>
</g>
</svg>
