<?xml version="1.0" encoding="iso-8859-1"?>
<!-- Generator: Adobe Illustrator 19.0.0, SVG Export Plug-In . SVG Version: 6.00 Build 0)  -->
<svg version="1.1" id="Capa_1" xmlns="http://www.w3.org/2000/svg" xmlns:xlink="http://www.w3.org/1999/xlink" x="0px" y="0px"
	 viewBox="0 0 512 512" style="enable-background:new 0 0 512 512;" xml:space="preserve">
<g>
	<g>
		<path d="M479.025,65.564h-85.422c-4.142,0-7.5,3.358-7.5,7.5c0,4.142,3.358,7.5,7.5,7.5h85.422
			c9.912,0,17.975,8.064,17.975,17.975V413.46c0,9.912-8.063,17.976-17.975,17.976h-76.368l-10.109-39.411
			c-4.32-16.822-19.465-28.57-36.829-28.57H156.282c-17.365,0-32.509,11.749-36.829,28.572l-10.109,39.409H32.975
			c-9.912,0-17.975-8.063-17.975-17.976V98.539c0-9.911,8.063-17.975,17.975-17.975h330.627c4.142,0,7.5-3.358,7.5-7.5
			c0-4.142-3.358-7.5-7.5-7.5H32.975C14.792,65.564,0,80.357,0,98.539V413.46c0,18.183,14.792,32.976,32.975,32.976h446.05
			c18.183,0,32.975-14.793,32.975-32.976V98.539C512,80.356,497.208,65.564,479.025,65.564z M124.829,431.436l9.152-35.68
			c2.616-10.187,11.786-17.301,22.3-17.301h199.437c10.514,0,19.685,7.114,22.3,17.299l9.152,35.682H124.829z"/>
	</g>
</g>
<g>
	<g>
		<path d="M188.947,383.074c-12.082,0-21.91,9.829-21.91,21.91s9.829,21.91,21.91,21.91s21.91-9.829,21.91-21.91
			S201.028,383.074,188.947,383.074z M188.947,411.895c-3.81,0-6.91-3.1-6.91-6.91s3.1-6.91,6.91-6.91s6.91,3.1,6.91,6.91
			S192.757,411.895,188.947,411.895z"/>
	</g>
</g>
<g>
	<g>
		<path d="M323.053,383.074c-12.081,0-21.91,9.829-21.91,21.91s9.829,21.91,21.91,21.91c12.082,0,21.91-9.829,21.91-21.91
			S335.135,383.074,323.053,383.074z M323.053,411.895c-3.81,0-6.91-3.1-6.91-6.91s3.1-6.91,6.91-6.91s6.91,3.1,6.91,6.91
			S326.863,411.895,323.053,411.895z"/>
	</g>
</g>
<g>
	<g>
		<path d="M171.355,142.41c-4.142,0-7.5,3.357-7.5,7.5v15.319c0,4.142,3.358,7.5,7.5,7.5c4.142,0,7.5-3.359,7.5-7.5V149.91
			C178.855,145.767,175.497,142.41,171.355,142.41z"/>
	</g>
</g>
<g>
	<g>
		<path d="M340.646,142.41c-4.142,0-7.5,3.357-7.5,7.5v15.319c0,4.142,3.358,7.5,7.5,7.5c4.142,0,7.5-3.359,7.5-7.5V149.91
			C348.146,145.767,344.788,142.41,340.646,142.41z"/>
	</g>
</g>
<g>
	<g>
		<path d="M281.828,158.516c-3.119-2.726-7.856-2.408-10.583,0.711c-3.71,4.244-9.267,6.679-15.245,6.679
			c-5.978,0-11.534-2.435-15.245-6.679c-2.726-3.119-7.464-3.437-10.583-0.71c-3.119,2.726-3.437,7.464-0.711,10.583
			c6.56,7.502,16.232,11.806,26.539,11.806c10.306,0,19.979-4.303,26.539-11.807C285.265,165.98,284.947,161.242,281.828,158.516z"
			/>
	</g>
</g>
<g>
	<g>
		<circle cx="67.786" cy="399" r="9.805"/>
	</g>
</g>
<g>
	<g>
		<circle cx="39.23" cy="105.29" r="9.805"/>
	</g>
</g>
<g>
	<g>
		<circle cx="444.21" cy="399" r="9.805"/>
	</g>
</g>
<g>
	<g>
		<circle cx="472.77" cy="105.29" r="9.805"/>
	</g>
</g>
<g>
	<g>
		<path d="M433.327,113.435H144.269c-4.142,0-7.5,3.358-7.5,7.5c0,4.142,3.358,7.5,7.5,7.5h289.058
			c7.274,0,13.192,5.918,13.192,13.192v49.1H65.481v-49.1c0-7.274,5.918-13.192,13.192-13.192h35.596c4.142,0,7.5-3.358,7.5-7.5
			c0-4.142-3.358-7.5-7.5-7.5H78.673c-15.545,0-28.192,12.647-28.192,28.192v175.828c0,15.545,12.647,28.192,28.192,28.192h354.653
			c15.545,0,28.192-12.647,28.192-28.192V141.627h0.001C461.519,126.082,448.872,113.435,433.327,113.435z M433.327,330.646H78.673
			c-7.274,0-13.192-5.918-13.192-13.192V205.727h381.038v111.727h0C446.519,324.728,440.601,330.646,433.327,330.646z"/>
	</g>
</g>
<g>
	<g>
		<path d="M371.188,220.009c0,0-0.001,0-0.002,0h-0.001H140.813c-26.565,0-48.178,21.612-48.178,48.178
			c0,26.566,21.612,48.178,48.178,48.178h230.373h0.001c0.001,0,0.001,0,0.001,0c26.566,0,48.178-21.612,48.178-48.178
			C419.366,241.621,397.754,220.009,371.188,220.009z M140.813,301.365c-18.295,0-33.178-14.884-33.178-33.178
			s14.883-33.178,33.178-33.178c18.294,0,33.178,14.884,33.178,33.178S159.108,301.365,140.813,301.365z M335.913,300.954
			c0.126,0.136,0.246,0.277,0.373,0.411H175.715c0.13-0.136,0.251-0.28,0.38-0.418c8.212-8.822,12.896-20.71,12.896-32.76
			c0-12.232-4.844-24.318-13.275-33.178h160.57c-8.409,8.828-13.276,20.983-13.276,33.178
			C323.01,280.286,327.693,292.096,335.913,300.954z M371.188,301.365c-18.06,0-33.178-15.118-33.178-33.178
			c0-17.956,15.243-33.178,33.178-33.178c18.294,0,33.178,14.884,33.178,33.178S389.483,301.365,371.188,301.365z"/>
	</g>
</g>
<g>
</g>
<g>
</g>
<g>
</g>
<g>
</g>
<g>
</g>
<g>
</g>
<g>
</g>
<g>
</g>
<g>
</g>
<g>
</g>
<g>
</g>
<g>
</g>
<g>
</g>
<g>
</g>
<g>
</g>
</svg>
