<?xml version="1.0" encoding="iso-8859-1"?>
<!-- Generator: Adobe Illustrator 19.0.0, SVG Export Plug-In . SVG Version: 6.00 Build 0)  -->
<svg version="1.1" id="Capa_1" xmlns="http://www.w3.org/2000/svg" xmlns:xlink="http://www.w3.org/1999/xlink" x="0px" y="0px"
	 viewBox="0 0 512 512" style="enable-background:new 0 0 512 512;" xml:space="preserve">
<g>
	<g>
		<path d="M474.14,314.127V230.21c0-55.212-20.669-107.722-58.241-148.216c-0.572-10.026-5.104-19.805-13.39-26.749
			C361.546,20.918,309.516,2.012,256,2.012c-30.438,0-60.152,5.99-88.318,17.804c-3.82,1.603-5.618,5.998-4.016,9.817
			c1.603,3.82,6,5.616,9.817,4.015c26.32-11.039,54.082-16.636,82.517-16.636c49.998,0,98.607,17.662,136.873,49.731
			c9.367,7.85,10.671,22.581,2.815,31.954c-7.92,9.452-22.515,10.725-31.954,2.815C333.622,76.275,295.361,62.376,256,62.376
			c-39.36,0-77.621,13.898-107.732,39.135c-9.427,7.9-24.058,6.606-31.954-2.814c-7.921-9.454-6.621-24.047,2.814-31.955
			c8.465-7.094,17.598-13.595,27.144-19.32c3.552-2.13,4.705-6.737,2.574-10.29c-2.13-3.552-6.736-4.705-10.29-2.574
			c-10.218,6.129-19.997,13.089-29.063,20.688c-8.286,6.944-12.818,16.723-13.39,26.749C58.529,122.489,37.86,174.999,37.86,230.213
			v83.917C14.856,331.823,0,359.614,0,390.814c0,53.323,43.382,96.705,96.705,96.705h13.572
			c3.338,12.907,15.082,22.469,29.018,22.469c16.525,0,29.969-13.444,29.969-29.969v-178.41c0-16.525-13.444-29.969-29.969-29.969
			c-13.936,0-25.68,9.562-29.018,22.469H96.705c-1.206,0-2.406,0.03-3.602,0.074v-63.97c0-40.138,14.703-78.511,41.466-108.438
			c8.263-0.183,16.52-3.057,23.333-8.767C185.318,90.03,220.157,77.376,256,77.376c35.844,0,70.683,12.654,98.1,35.632
			c6.557,5.495,14.819,8.591,23.348,8.783c26.752,29.924,41.449,68.29,41.449,108.42v63.97c-1.196-0.044-2.395-0.074-3.602-0.074
			h-13.572c-3.338-12.907-15.082-22.469-29.018-22.469c-16.525,0-29.969,13.444-29.969,29.969v178.41
			c0,16.525,13.444,29.969,29.969,29.969c13.936,0,25.68-9.562,29.018-22.469h13.572c53.323,0,96.705-43.382,96.705-96.705
			C512,359.613,497.144,331.822,474.14,314.127z M124.326,301.608c0.001-8.253,6.716-14.969,14.969-14.969
			c8.254,0,14.969,6.715,14.969,14.969v178.41c0,8.254-6.715,14.969-14.969,14.969c-8.254,0-14.969-6.715-14.969-14.969V301.608z
			 M96.705,309.109h12.622v163.41H96.705C51.653,472.519,15,435.866,15,390.814c0-35.113,22.266-65.118,53.418-76.651
			C77.451,310.819,87.074,309.109,96.705,309.109z M78.104,230.211v65.692c-0.106,0.021-0.21,0.047-0.316,0.068
			c-8.641,1.72-17.073,4.648-24.927,8.641v-74.4c0-47.698,16.556-93.236,46.893-129.682c-0.787,0.959,4.337,6.934,5.063,7.801
			c3.528,4.209,8.004,7.673,12.989,9.984C92.119,149.957,78.104,189.24,78.104,230.211z M394.193,118.314
			c4.596-2.129,8.729-5.2,12.189-9.076c2.324-2.601,4.342-5.565,5.865-8.707c30.336,36.446,46.892,81.984,46.892,129.681v74.398
			c-0.011-0.418-3.804-1.818-4.36-2.067c-6.584-2.938-13.493-5.163-20.566-6.571c-0.106-0.021-0.21-0.047-0.316-0.068v-65.692
			C433.897,189.242,419.879,149.956,394.193,118.314z M415.295,472.519h-12.622V370.594c0-4.142-3.358-7.5-7.5-7.5
			c-4.142,0-7.5,3.358-7.5,7.5v109.425c0,8.254-6.715,14.969-14.969,14.969c-8.254,0-14.969-6.715-14.969-14.969v-178.41
			c0-8.254,6.715-14.969,14.969-14.969c8.254,0,14.969,6.715,14.969,14.969v38.985c0,4.142,3.358,7.5,7.5,7.5
			c4.142,0,7.5-3.358,7.5-7.5v-31.485h12.622c9.633,0,19.247,1.719,28.284,5.053C474.732,325.694,497,355.7,497,390.814
			C497,435.866,460.347,472.519,415.295,472.519z"/>
	</g>
</g>
<g>
</g>
<g>
</g>
<g>
</g>
<g>
</g>
<g>
</g>
<g>
</g>
<g>
</g>
<g>
</g>
<g>
</g>
<g>
</g>
<g>
</g>
<g>
</g>
<g>
</g>
<g>
</g>
<g>
</g>
</svg>
