<?xml version="1.0" encoding="iso-8859-1"?>
<!-- Generator: Adobe Illustrator 19.0.0, SVG Export Plug-In . SVG Version: 6.00 Build 0)  -->
<svg version="1.1" id="Capa_1" xmlns="http://www.w3.org/2000/svg" xmlns:xlink="http://www.w3.org/1999/xlink" x="0px" y="0px"
	 viewBox="0 0 512 512" style="enable-background:new 0 0 512 512;" xml:space="preserve">
<g>
	<g>
		<path d="M187.05,87.365c-4.142,0-7.5,3.359-7.5,7.5v12.479c0,4.142,3.358,7.5,7.5,7.5c4.142,0,7.5-3.358,7.5-7.5V94.865
			C194.55,90.723,191.193,87.365,187.05,87.365z"/>
	</g>
</g>
<g>
	<g>
		<path d="M324.951,87.365c-4.142,0-7.5,3.359-7.5,7.5v12.479c0,4.142,3.358,7.5,7.5,7.5c4.142,0,7.5-3.358,7.5-7.5V94.865
			C332.451,90.723,329.093,87.365,324.951,87.365z"/>
	</g>
</g>
<g>
	<g>
		<path d="M277.955,100.829c-3.119-2.726-7.857-2.408-10.583,0.711c-2.758,3.155-6.902,4.965-11.371,4.965s-8.613-1.81-11.371-4.965
			c-2.726-3.119-7.464-3.437-10.583-0.711c-3.119,2.726-3.437,7.464-0.711,10.583c5.607,6.414,13.868,10.093,22.665,10.093
			s17.058-3.679,22.665-10.093C281.392,108.293,281.073,103.555,277.955,100.829z"/>
	</g>
</g>
<g>
	<g>
		<path d="M431.794,218.791h-30.108c-2.341-6.929-7.829-12.417-14.757-14.758v-73.105c0-31.079-11.088-61.212-31.223-84.85
			c-2.686-3.153-7.42-3.532-10.573-0.846c-3.153,2.686-3.532,7.419-0.846,10.573c17.825,20.927,27.642,47.606,27.642,75.124V202.8
			H140.073v-71.871C140.073,67.005,192.078,15,256,15c24.413,0,47.766,7.503,67.534,21.697c3.364,2.416,8.051,1.647,10.467-1.717
			c2.416-3.364,1.647-8.051-1.718-10.466C309.95,8.477,283.572,0,256,0c-72.194,0-130.928,58.734-130.928,130.928v73.105
			c-6.929,2.341-12.416,7.829-14.757,14.758H80.206c-11.067,0-20.071,9.003-20.071,20.071c0,8.415,5.211,15.625,12.571,18.603
			v27.444c0,92.165,68.38,168.647,157.069,181.41V504.5c0,4.142,3.358,7.5,7.5,7.5h37.449c4.142,0,7.5-3.358,7.5-7.5v-38.181
			c88.689-12.762,157.069-89.245,157.069-181.41v-27.444c7.36-2.979,12.571-10.188,12.571-18.603
			C451.865,227.795,442.861,218.791,431.794,218.791z M124.08,226.292c0-4.684,3.809-8.493,8.492-8.493h246.856
			c4.683,0,8.492,3.81,8.492,8.493v25.142c0,4.683-3.81,8.492-8.492,8.492H218.506c-4.142,0-7.5,3.358-7.5,7.5
			c0,4.142,3.358,7.5,7.5,7.5h153.422v9.984c0,63.923-52.005,115.928-115.928,115.928S140.072,348.833,140.072,284.91v-9.984h48.434
			c4.142,0,7.5-3.358,7.5-7.5c0-4.142-3.358-7.5-7.5-7.5h-55.934c-4.683,0-8.492-3.81-8.492-8.492V226.292z M116.269,268.324
			c2.476,2.391,5.472,4.242,8.803,5.367v11.219c0,72.194,58.734,130.928,130.928,130.928s130.928-58.734,130.928-130.928v-11.22
			c3.33-1.125,6.327-2.976,8.802-5.366v16.585c0,77.048-62.683,139.731-139.73,139.731s-139.731-62.683-139.731-139.731V268.324z
			 M75.136,238.863c0-2.796,2.275-5.071,5.071-5.071h28.874v10.142h-0.311H80.206C77.411,243.934,75.136,241.659,75.136,238.863z
			 M267.226,497h-22.449v-29.143c0.15,0.009,0.298,0.012,0.448,0.021c7.329,0.43,14.672,0.422,22.001-0.021V497z M424.293,284.909
			c0,86.743-65.968,158.36-150.368,167.338c-11.914,1.267-23.94,1.259-35.854,0c-84.398-8.979-150.365-80.596-150.365-167.338
			v-25.976h13.563v25.976c0,85.319,69.412,154.731,154.731,154.731s154.73-69.412,154.73-154.731v-25.976h13.563V284.909z
			 M431.794,243.933h-28.564h-0.31v-10.142h28.874c2.796,0.001,5.071,2.275,5.071,5.071S434.591,243.933,431.794,243.933z"/>
	</g>
</g>
<g>
</g>
<g>
</g>
<g>
</g>
<g>
</g>
<g>
</g>
<g>
</g>
<g>
</g>
<g>
</g>
<g>
</g>
<g>
</g>
<g>
</g>
<g>
</g>
<g>
</g>
<g>
</g>
<g>
</g>
</svg>
